<svg width="153" height="153" viewBox="0 0 153 153" fill="none" xmlns="http://www.w3.org/2000/svg">
<mask id="mask0_1_132" style="mask-type:luminance" maskUnits="userSpaceOnUse" x="0" y="0" width="153" height="153">
<path d="M119.391 0.5H33.6089C15.3234 0.5 0.5 15.3234 0.5 33.6089V119.391C0.5 137.677 15.3234 152.5 33.6089 152.5H119.391C137.677 152.5 152.5 137.677 152.5 119.391V33.6089C152.5 15.3234 137.677 0.5 119.391 0.5Z" fill="white"/>
</mask>
<g mask="url(#mask0_1_132)">
<path d="M119.391 0.5H33.6089C15.3234 0.5 0.5 15.3234 0.5 33.6089V119.391C0.5 137.677 15.3234 152.5 33.6089 152.5H119.391C137.677 152.5 152.5 137.677 152.5 119.391V33.6089C152.5 15.3234 137.677 0.5 119.391 0.5Z" fill="#BB9C77"/>
<g filter="url(#filter0_f_1_132)">
<path d="M60.6982 115.779H145.577L127.514 139.381L60.6982 140.46V115.779Z" fill="#AD824E"/>
</g>
<g filter="url(#filter1_f_1_132)">
<g style="mix-blend-mode:screen">
<path d="M102.666 -13.9478H7.54236C-1.16819 -13.9478 -8.22949 -6.88646 -8.22949 1.8241V23.5105C-8.22949 32.2211 -1.16819 39.2823 7.54236 39.2823H102.666C111.377 39.2823 118.438 32.2211 118.438 23.5105V1.8241C118.438 -6.88646 111.377 -13.9478 102.666 -13.9478Z" fill="#E9C292"/>
</g>
</g>
<g filter="url(#filter2_d_1_132)">
<path d="M57.908 32.8562H48.0563C43.6512 32.8562 40.0801 36.4273 40.0801 40.8324V111.66C40.0801 116.065 43.6512 119.636 48.0563 119.636H57.908C62.3132 119.636 65.8843 116.065 65.8843 111.66V40.8324C65.8843 36.4273 62.3132 32.8562 57.908 32.8562Z" stroke="#FAF4EB" stroke-width="6.92277"/>
</g>
<g filter="url(#filter3_d_1_132)">
<path d="M40.0801 101.846V111.702C40.0801 116.107 43.6512 119.678 48.0563 119.678H104.943C109.349 119.678 112.92 116.107 112.92 111.702V101.846C112.92 97.441 109.349 93.87 104.943 93.87H48.0563C43.6512 93.87 40.0801 97.441 40.0801 101.846Z" stroke="#FAF4EB" stroke-width="6.92277"/>
</g>
<path d="M62.2936 48.5082H43.6924V54.227H62.2936V48.5082Z" fill="#FAF4EB" fill-opacity="0.95" stroke="#FAF4EB" stroke-width="0.30099"/>
</g>
<defs>
<filter id="filter0_f_1_132" x="23.0922" y="78.1733" width="160.091" height="99.8932" filterUnits="userSpaceOnUse" color-interpolation-filters="sRGB">
<feFlood flood-opacity="0" result="BackgroundImageFix"/>
<feBlend mode="normal" in="SourceGraphic" in2="BackgroundImageFix" result="shape"/>
<feGaussianBlur stdDeviation="18.803" result="effect1_foregroundBlur_1_132"/>
</filter>
<filter id="filter1_f_1_132" x="-48.152" y="-53.8702" width="206.513" height="133.075" filterUnits="userSpaceOnUse" color-interpolation-filters="sRGB">
<feFlood flood-opacity="0" result="BackgroundImageFix"/>
<feBlend mode="normal" in="SourceGraphic" in2="BackgroundImageFix" result="shape"/>
<feGaussianBlur stdDeviation="19.9612" result="effect1_foregroundBlur_1_132"/>
</filter>
<filter id="filter2_d_1_132" x="33.0068" y="25.7829" width="44.7667" height="105.742" filterUnits="userSpaceOnUse" color-interpolation-filters="sRGB">
<feFlood flood-opacity="0" result="BackgroundImageFix"/>
<feColorMatrix in="SourceAlpha" type="matrix" values="0 0 0 0 0 0 0 0 0 0 0 0 0 0 0 0 0 0 127 0" result="hardAlpha"/>
<feOffset dx="2.40792" dy="2.40792"/>
<feGaussianBlur stdDeviation="3.0099"/>
<feComposite in2="hardAlpha" operator="out"/>
<feColorMatrix type="matrix" values="0 0 0 0 0.100261 0 0 0 0 0.124531 0 0 0 0 0.245881 0 0 0 0.1 0"/>
<feBlend mode="normal" in2="BackgroundImageFix" result="effect1_dropShadow_1_132"/>
<feBlend mode="normal" in="SourceGraphic" in2="effect1_dropShadow_1_132" result="shape"/>
</filter>
<filter id="filter3_d_1_132" x="33.0068" y="86.7967" width="91.8018" height="44.7708" filterUnits="userSpaceOnUse" color-interpolation-filters="sRGB">
<feFlood flood-opacity="0" result="BackgroundImageFix"/>
<feColorMatrix in="SourceAlpha" type="matrix" values="0 0 0 0 0 0 0 0 0 0 0 0 0 0 0 0 0 0 127 0" result="hardAlpha"/>
<feOffset dx="2.40792" dy="2.40792"/>
<feGaussianBlur stdDeviation="3.0099"/>
<feComposite in2="hardAlpha" operator="out"/>
<feColorMatrix type="matrix" values="0 0 0 0 0.100261 0 0 0 0 0.124531 0 0 0 0 0.245881 0 0 0 0.1 0"/>
<feBlend mode="normal" in2="BackgroundImageFix" result="effect1_dropShadow_1_132"/>
<feBlend mode="normal" in="SourceGraphic" in2="effect1_dropShadow_1_132" result="shape"/>
</filter>
</defs>
</svg>
