<svg viewBox="0 0 805 487" fill="none" xmlns="http://www.w3.org/2000/svg">
<path d="M160.316 296.983C152.197 295.428 144.079 293.874 135.961 292.319C127.769 290.722 119.613 289.146 111.495 287.591C116.71 293.67 121.902 299.785 127.071 305.936C132.24 312.088 137.469 318.224 142.758 324.346L160.316 296.983ZM211.034 284.711C211.477 284.968 211.837 285.275 212.113 285.633C212.363 285.876 212.349 286.213 212.073 286.644C211.75 287.147 210.907 288.382 209.542 290.35C208.224 292.247 207.105 293.913 206.183 295.349C204.754 297.576 203.326 299.802 201.897 302.029C200.515 304.183 199.183 306.417 197.902 308.729C197.239 309.921 196.515 311.127 195.732 312.348C195.068 313.54 194.368 314.71 193.63 315.86C193.4 316.219 193.128 316.406 192.814 316.421C192.473 316.322 192.155 316.186 191.859 316.015L191.043 315.394C190.821 315.265 190.646 315.065 190.517 314.793C190.314 314.478 190.304 314.177 190.488 313.89L193.876 308.611C194.29 307.964 194.603 307.161 194.815 306.199C195.073 305.166 194.796 304.414 193.984 303.943C193.762 303.815 192.752 303.574 190.953 303.221C189.08 302.824 186.843 302.365 184.242 301.841C181.566 301.275 178.868 300.745 176.146 300.251C173.425 299.757 171.031 299.304 168.964 298.894C166.824 298.441 165.427 298.173 164.772 298.089L145.901 327.499C146.427 328.1 147.368 329.237 148.725 330.911C150.008 332.542 151.504 334.395 153.211 336.469C154.965 338.471 156.659 340.488 158.292 342.52C159.972 344.48 161.426 346.16 162.654 347.562C163.854 348.849 164.638 349.6 165.007 349.814C166.041 350.413 167.051 350.26 168.037 349.354C169.024 348.448 169.747 347.635 170.208 346.917C170.669 346.199 171.084 345.553 171.452 344.978C171.821 344.403 172.084 343.915 172.24 343.513C172.332 343.37 172.494 343.118 172.724 342.759C172.927 342.286 173.051 342.013 173.097 341.941C173.374 341.51 173.793 341.408 174.356 341.636C174.965 341.792 175.394 341.992 175.643 342.235C175.893 342.478 175.962 342.765 175.851 343.095C175.713 343.31 175.552 343.561 175.368 343.849C174.031 345.932 172.635 348.029 171.178 350.141C169.722 352.252 168.326 354.35 166.989 356.433C165.976 358.013 165.022 359.578 164.128 361.129C163.234 362.68 162.28 364.246 161.266 365.826C160.851 366.472 160.275 366.581 159.537 366.153C158.503 365.554 158.309 364.751 158.954 363.746C159.185 363.387 159.498 362.977 159.895 362.517C160.217 362.015 160.563 361.476 160.931 360.901C161.438 360.111 161.724 359.193 161.788 358.146C161.824 356.985 161.399 355.753 160.513 354.45C160.079 353.706 158.768 351.96 156.58 349.213C154.393 346.467 151.665 343.062 148.397 338.999C145.056 334.893 141.465 330.544 137.625 325.952C133.758 321.246 129.904 316.596 126.064 312.004C122.225 307.412 118.639 303.214 115.307 299.409C112.021 295.533 109.288 292.372 107.11 289.926C104.858 287.437 103.474 286.043 102.957 285.744C102.809 285.658 102.556 285.659 102.196 285.746C101.762 285.79 101.509 285.791 101.435 285.748C101.14 285.577 101.024 285.362 101.089 285.104C101.402 284.3 101.775 283.481 102.208 282.649C102.641 281.816 103.051 281.019 103.438 280.258C103.89 279.238 104.378 278.241 104.903 277.264C105.355 276.245 105.843 275.247 106.368 274.271L201.781 291.318C202.703 291.459 203.639 291.263 204.589 290.73C205.511 290.082 206.203 289.399 206.664 288.681C207.078 288.034 207.493 287.388 207.908 286.742C208.295 285.981 208.719 285.241 209.18 284.523C209.364 284.235 209.664 284.163 210.079 284.305C210.494 284.447 210.812 284.583 211.034 284.711Z" fill="black"/>
<path d="M242.159 242.707C238.63 236.863 234.67 233.027 230.277 231.197C225.959 229.326 220.598 230.101 214.194 233.523C213.006 234.194 211.817 234.866 210.628 235.537C209.395 236.136 208.184 236.771 206.996 237.442C205.138 238.492 203.265 239.598 201.378 240.763C199.564 241.885 197.692 242.992 195.76 244.083L216.468 278.38C217.262 279.695 218.207 280.435 219.302 280.6C220.473 280.722 221.659 280.542 222.862 280.059C224.02 279.502 225.083 278.951 226.048 278.405C227.312 277.692 228.575 276.978 229.838 276.265C231.131 275.436 232.387 274.629 233.606 273.842C239.552 269.994 243.435 265.449 245.253 260.21C247.071 254.97 246.04 249.136 242.159 242.707ZM212.988 207.018C209.592 201.394 205.606 198.257 201.03 197.609C196.41 196.888 191.351 198.081 185.853 201.186C183.847 202.32 181.863 203.489 179.901 204.696C177.969 205.787 176.044 206.972 174.126 208.251L193.908 241.015C194.948 240.427 195.973 239.897 196.983 239.424C197.949 238.879 198.915 238.333 199.881 237.788C201.738 236.738 203.737 235.511 205.878 234.106C208.093 232.659 210.064 231.055 211.792 229.296C213.594 227.494 214.803 225.537 215.421 223.425C216.116 220.78 216.24 218.015 215.794 215.132C215.379 212.134 214.444 209.429 212.988 207.018ZM253.025 234.218C256.112 239.332 257.577 244.48 257.419 249.664C257.216 254.774 255.236 259.664 251.479 264.334C249.496 266.825 247.055 269.135 244.155 271.263C241.285 273.276 238.439 275.08 235.615 276.675C235.095 276.969 234.538 277.284 233.943 277.619C233.423 277.913 232.881 278.17 232.317 278.391C228.663 280.26 225.03 282.165 221.42 284.106C217.839 285.933 214.266 287.853 210.7 289.868C208.694 291.001 206.776 292.28 204.946 293.706C203.147 295.016 201.244 296.238 199.238 297.371C198.644 297.707 198.177 297.676 197.838 297.28C197.455 296.811 197.131 296.357 196.866 295.919C196.381 295.115 196.473 294.524 197.142 294.147C198.182 293.559 199.259 292.951 200.374 292.321C201.518 291.576 202.567 290.837 203.519 290.104C204.947 289.003 205.597 287.852 205.469 286.651C205.372 285.334 204.941 283.961 204.178 282.531C203.444 280.986 202.621 279.54 201.709 278.194C200.796 276.848 199.921 275.481 199.083 274.093C197.451 271.391 195.819 268.688 194.188 265.985C192.586 263.167 190.969 260.407 189.337 257.704L182.126 245.76C179.744 241.815 177.325 237.891 174.869 233.989C172.487 230.044 170.106 226.099 167.724 222.154C167.283 221.424 166.827 220.751 166.355 220.135C165.914 219.405 165.384 218.774 164.764 218.242C163.362 217.075 161.904 216.723 160.39 217.186C158.906 217.534 157.496 218.086 156.159 218.842C155.639 219.136 155.103 219.487 154.553 219.896C154.033 220.189 153.476 220.504 152.881 220.84C152.361 221.134 151.873 221.067 151.415 220.64C151.032 220.17 150.752 219.789 150.576 219.497C150.4 219.205 150.26 218.892 150.158 218.558C150.086 218.108 150.236 217.779 150.608 217.569C152.316 216.604 154.032 215.732 155.755 214.955C157.434 214.105 159.09 213.218 160.725 212.295C165.108 209.819 169.352 207.275 173.454 204.663C177.587 201.937 181.72 199.21 185.853 196.484C186.403 196.075 186.938 195.724 187.459 195.43C187.979 195.136 188.499 194.842 189.019 194.549C193.18 192.198 197.411 190.543 201.713 189.582C206.046 188.506 210.157 188.633 214.049 189.961C217.94 191.29 221.319 194.329 224.185 199.077C225.994 202.072 226.808 205.237 226.629 208.571C226.48 211.79 225.672 214.989 224.205 218.169C222.767 221.235 221.057 224.013 219.074 226.505L219.405 227.053C223.324 225.622 227.418 224.73 231.688 224.375C235.914 223.948 239.92 224.477 243.706 225.963C247.449 227.375 250.555 230.127 253.025 234.218Z" fill="black"/>
<path d="M325.958 184.325C324.408 179.625 322.302 175.011 319.641 170.483C317.061 165.93 313.951 161.948 310.31 158.536C306.67 155.125 302.523 152.768 297.871 151.467C293.193 150.085 288.047 150.283 282.434 152.061C276.983 153.787 272.787 156.593 269.846 160.478C266.904 164.364 264.962 168.828 264.019 173.87C263.05 178.832 262.811 183.964 263.302 189.269C263.848 194.466 264.869 199.334 266.366 203.872C267.943 208.653 270.021 213.321 272.6 217.874C275.153 222.346 278.237 226.248 281.851 229.578C285.438 232.828 289.544 235.062 294.17 236.283C298.876 237.477 304.117 237.159 309.893 235.33C315.669 233.5 320.054 230.724 323.049 227.001C326.044 223.277 327.972 219.042 328.832 214.294C329.747 209.439 329.891 204.426 329.264 199.255C328.636 194.083 327.534 189.106 325.958 184.325ZM339.138 179.747C342.104 188.743 343.056 197.213 341.992 205.158C340.983 212.996 337.893 219.837 332.722 225.682C327.633 231.501 320.411 235.892 311.056 238.855C301.945 241.741 293.534 242.391 285.823 240.806C278.167 239.114 271.535 235.486 265.927 229.923C260.292 224.279 256.005 217 253.065 208.085C251.007 201.845 250.087 195.647 250.303 189.492C250.52 183.338 251.845 177.547 254.279 172.122C256.712 166.697 260.186 161.972 264.698 157.947C269.266 153.815 274.803 150.718 281.311 148.657C290.423 145.771 298.779 145.227 306.38 147.027C314.036 148.719 320.682 152.387 326.316 158.031C331.924 163.594 336.198 170.833 339.138 179.747Z" fill="black"/>
<path d="M434.186 115.365C434.353 116.202 434.244 116.746 433.859 116.996C433.474 117.247 432.947 117.438 432.278 117.571C431.692 117.688 431.106 117.804 430.52 117.92C429.917 117.953 429.323 118.027 428.737 118.144C427.565 118.376 426.435 118.818 425.347 119.469C424.326 120.02 423.874 121.023 423.991 122.479C424.192 123.918 424.443 125.391 424.744 126.897C425.046 128.403 425.347 129.909 425.648 131.415C427.021 138.277 428.444 145.172 429.917 152.1C431.457 158.928 432.921 165.815 434.31 172.76C435.733 179.872 435.934 186.314 434.913 192.085C433.875 197.772 431.305 202.545 427.204 206.404C423.186 210.247 417.327 212.932 409.627 214.461C398.495 216.672 389.171 215.739 381.655 211.663C374.205 207.487 369.326 199.626 367.016 188.078L357.023 138.124C356.939 137.706 356.856 137.287 356.772 136.869C356.755 136.35 356.672 135.932 356.521 135.614C356.119 134.041 355.09 133.245 353.433 133.226C351.859 133.19 350.444 133.297 349.189 133.546C348.603 133.662 347.984 133.829 347.331 134.046C346.745 134.162 346.117 134.287 345.448 134.419C345.197 134.469 344.87 134.36 344.468 134.092C344.318 133.774 344.184 133.322 344.067 132.736C343.882 131.816 344.334 131.248 345.423 131.031C346.343 130.849 347.23 130.716 348.084 130.634C348.921 130.467 349.767 130.343 350.62 130.26C352.562 129.962 354.462 129.672 356.32 129.39C358.162 129.024 360.003 128.659 361.844 128.293C364.774 127.711 367.645 127.054 370.457 126.322C373.353 125.573 376.266 124.908 379.195 124.326C380.283 124.11 380.928 124.504 381.129 125.508C381.196 125.843 381.196 126.278 381.129 126.813C381.045 127.265 380.752 127.54 380.25 127.64C379.162 127.856 378.116 128.064 377.111 128.263C376.09 128.379 375.035 128.545 373.947 128.761C373.027 128.944 372.031 129.403 370.959 130.137C369.888 130.872 369.377 131.8 369.427 132.921C369.444 134.309 369.653 135.79 370.055 137.364C370.44 138.853 370.775 140.309 371.059 141.732C372.583 149.346 374.064 156.969 375.504 164.6C376.943 172.231 378.424 179.854 379.948 187.468C381.153 193.493 382.785 198.389 384.844 202.156C386.903 205.923 389.857 208.512 393.707 209.923C397.541 211.25 402.764 211.257 409.376 209.944C415.821 208.664 420.659 206.312 423.889 202.886C427.204 199.444 429.238 195.256 429.991 190.321C430.745 185.387 430.536 179.991 429.364 174.134C427.673 165.682 425.941 157.239 424.167 148.805C422.476 140.354 420.785 131.902 419.095 123.451C418.86 122.28 418.065 121.567 416.709 121.315C415.353 121.062 414.173 121.035 413.169 121.235C412.165 121.434 411.169 121.675 410.181 121.958C409.193 122.242 408.155 122.491 407.067 122.707C406.565 122.807 406.239 122.48 406.088 121.727C405.954 121.058 405.837 120.472 405.736 119.97C405.72 119.451 406.13 119.109 406.967 118.943C408.139 118.71 409.369 118.553 410.658 118.471C411.93 118.305 413.152 118.106 414.324 117.873C418.509 117.042 422.627 116.094 426.678 115.029C427.766 114.813 428.804 114.563 429.792 114.28C430.863 113.981 431.901 113.731 432.905 113.532C433.408 113.432 433.709 113.633 433.809 114.135C433.993 114.621 434.119 115.031 434.186 115.365Z" fill="black"/>
<path d="M537.562 147.449C537.272 148.608 536.627 149.08 535.626 148.864C535.292 148.792 535 148.73 534.75 148.676C534.52 148.539 534.363 148.287 534.279 147.92C534.237 147.737 534.205 147.337 534.184 146.722C534.266 146.041 534.338 145.577 534.4 145.329C534.604 142.756 534.662 139.889 534.574 136.729C534.589 133.505 534.001 130.761 532.809 128.497C532.223 127.324 530.971 126.357 529.051 125.594C527.132 124.832 525.13 124.226 523.044 123.777C520.959 123.328 519.332 122.978 518.164 122.726C516.913 122.457 515.369 122.124 513.534 121.729C511.782 121.352 510.114 121.342 508.531 121.699C507.03 122.073 506.031 123.254 505.534 125.241C502.407 137.741 499.311 150.292 496.247 162.892C493.286 175.428 490.232 187.988 487.084 200.571C486.815 201.647 487.067 202.574 487.839 203.351C488.633 204.045 489.593 204.601 490.719 205.018C491.845 205.435 492.784 205.724 493.535 205.886C494.202 206.03 494.786 206.155 495.287 206.263C495.891 206.306 496.486 206.39 497.07 206.516C497.904 206.696 498.228 207.158 498.041 207.903C497.959 208.234 497.834 208.731 497.669 209.393C497.524 209.973 497.159 210.2 496.575 210.074C493.572 209.427 490.579 208.739 487.597 208.009C484.718 207.215 481.778 206.495 478.775 205.848C474.77 204.986 470.652 204.229 466.419 203.58C465.501 203.382 464.531 203.217 463.509 203.084C462.488 202.951 461.518 202.786 460.6 202.588C459.85 202.427 459.588 201.89 459.816 200.98C460.064 199.986 460.345 199.393 460.657 199.198C460.97 199.004 461.585 199.005 462.502 199.203C462.669 199.239 462.826 199.316 462.972 199.435C463.222 199.489 463.389 199.525 463.472 199.543C464.39 199.74 465.579 199.909 467.038 200.049C468.498 200.189 469.832 200.127 471.041 199.864C472.353 199.536 473.155 198.792 473.445 197.633C475.123 191.277 476.759 184.912 478.354 178.538C480.032 172.182 481.669 165.816 483.263 159.442C484.837 153.151 486.359 146.892 487.829 140.665C489.32 134.356 490.852 128.055 492.426 121.764C492.674 120.77 492.485 119.77 491.858 118.762C491.314 117.773 490.594 117.138 489.697 116.858C488.988 116.53 488.216 116.277 487.382 116.097C486.631 115.936 485.838 115.765 485.004 115.585L473.867 113.187C470.864 112.54 468.426 112.8 466.551 113.967C464.781 115.069 463.314 116.716 462.15 118.908C461.007 121.017 459.885 123.218 458.784 125.511C458.742 125.677 458.472 126.229 457.973 127.169C457.579 128.044 457.142 128.909 456.664 129.766C456.29 130.558 456.051 130.986 455.947 131.051C455.51 131.393 454.958 131.492 454.29 131.349C453.373 131.151 453.028 130.597 453.256 129.686C453.338 129.355 453.442 128.941 453.566 128.444C453.795 127.883 454.044 127.239 454.314 126.512C454.957 124.644 455.651 122.394 456.398 119.763C457.248 117.067 458.005 114.569 458.668 112.269C458.958 111.459 459.207 110.641 459.414 109.813C459.621 108.985 459.85 108.249 460.099 107.605C460.389 106.446 461.222 106.102 462.599 106.573C468.543 108.463 474.602 110.074 480.776 111.403C487.053 112.668 493.236 113.956 499.326 115.267L509.962 117.558C513.382 118.294 516.803 119.031 520.223 119.767C523.747 120.439 527.272 121.111 530.796 121.782C532.318 122.023 533.872 122.314 535.457 122.655C537.146 122.932 538.783 123.241 540.368 123.582C541.453 123.816 541.975 124.364 541.935 125.228C541.956 125.494 541.811 126.423 541.501 128.014C541.212 129.522 540.861 131.278 540.447 133.283C540.054 135.205 539.64 137.035 539.205 138.774C538.874 140.447 538.626 141.615 538.46 142.277C538.337 143.123 538.213 143.969 538.089 144.815C537.966 145.66 537.79 146.539 537.562 147.449Z" fill="black"/>
<path d="M612.439 294.424C611.597 295.146 610.827 295.132 610.13 294.382C607.98 292.07 605.923 289.734 603.961 287.374C601.998 285.013 599.97 282.708 597.878 280.459C596.89 279.396 595.87 278.362 594.817 277.355C593.829 276.293 592.809 275.259 591.756 274.252C590.703 273.245 589.618 272.266 588.501 271.315C587.506 270.371 586.515 269.368 585.527 268.306C585.004 267.743 584.817 267.23 584.966 266.764C585.239 266.306 585.602 265.883 586.055 265.494C586.314 265.271 586.631 265.112 587.007 265.014C587.447 264.862 587.812 264.941 588.103 265.254C588.342 265.386 588.636 265.639 588.984 266.014C589.391 266.451 589.766 266.917 590.108 267.409C590.573 267.909 591.008 268.378 591.415 268.815C592.229 269.69 593.227 270.575 594.409 271.471C595.65 272.429 596.943 272.443 598.29 271.512C598.543 271.408 598.737 271.241 598.873 271.012C599.067 270.845 599.262 270.679 599.456 270.512L659.013 219.428L658.49 218.865C649.61 222.213 640.675 225.44 631.686 228.545C622.761 231.594 613.836 234.644 604.912 237.693C601.326 238.971 597.712 240.218 594.068 241.433C590.425 242.649 586.781 243.865 583.137 245.08C581.565 245.643 579.96 246.233 578.322 246.851C576.743 247.532 575.141 248.063 573.517 248.446C572.398 248.619 571.402 248.238 570.53 247.3C569.717 246.426 569.463 245.464 569.768 244.415C570.275 243.082 570.875 241.725 571.57 240.343C572.322 239.023 573.013 237.701 573.643 236.374C575.038 233.493 576.43 230.67 577.818 227.906C579.207 225.143 580.595 222.379 581.984 219.615C586.435 210.63 590.854 201.672 595.241 192.742C599.751 183.819 604.228 174.924 608.672 166.057C598.633 174.668 588.561 183.307 578.457 191.974C568.476 200.647 558.465 209.29 548.426 217.901C547.13 219.012 546.879 220.182 547.673 221.411C548.525 222.703 549.387 223.817 550.258 224.754C550.839 225.379 551.453 225.976 552.099 226.545C552.745 227.115 553.358 227.712 553.94 228.336C554.23 228.649 554.181 228.972 553.793 229.305C553.469 229.583 552.986 229.941 552.345 230.378C551.704 230.816 551.18 230.816 550.773 230.378C549.204 228.691 547.638 226.945 546.076 225.14C544.636 223.342 543.132 221.599 541.563 219.912C540.052 218.288 538.447 216.687 536.748 215.111C535.172 213.542 533.629 211.946 532.118 210.321C532.189 210.147 532.228 210.002 532.235 209.884C532.364 209.773 532.433 209.658 532.439 209.54L533.314 208.79C533.961 208.234 534.434 208.054 534.731 208.248C535.028 208.442 535.38 208.758 535.787 209.196C536.252 209.696 536.656 210.192 536.998 210.685C537.404 211.122 537.811 211.56 538.218 211.997C539.09 212.934 540.149 213.823 541.396 214.663C542.643 215.503 543.911 215.426 545.2 214.433C546.353 213.669 547.418 212.812 548.396 211.86C549.497 210.916 550.566 209.999 551.602 209.11C553.675 207.333 555.719 205.523 557.733 203.683C559.871 201.85 561.976 200.044 564.048 198.266C570.979 192.322 577.906 186.436 584.83 180.61C591.812 174.846 598.736 169.019 605.601 163.13C606.832 162.075 607.119 160.818 606.461 159.36C605.804 157.902 605.039 156.704 604.167 155.767C603.644 155.205 603.089 154.67 602.501 154.163C601.913 153.656 601.358 153.122 600.835 152.56C600.486 152.185 600.448 151.768 600.72 151.31C600.993 150.851 601.258 150.511 601.517 150.289C602.424 149.511 603.197 149.466 603.836 150.153C605.348 151.778 606.823 153.489 608.262 155.287C609.767 157.03 611.275 158.714 612.786 160.338C615.75 163.525 618.811 166.628 621.969 169.648L587.251 239.362C599.709 234.854 612.216 230.585 624.771 226.556C637.391 222.472 649.846 218.023 662.137 213.21C663.525 214.827 664.884 216.414 666.214 217.969C667.667 219.531 669.12 221.093 670.573 222.655C672.317 224.529 674.096 226.317 675.911 228.018C677.849 229.726 679.689 231.517 681.433 233.392C681.781 233.766 681.791 234.152 681.46 234.548C681.13 234.943 680.835 235.253 680.576 235.475C680.317 235.697 679.964 235.944 679.517 236.214C679.07 236.485 678.672 236.433 678.324 236.058C677.568 235.246 676.874 234.437 676.242 233.632C675.609 232.826 674.944 232.049 674.246 231.299C673.549 230.549 672.483 229.779 671.048 228.987C669.736 228.203 668.595 228.227 667.623 229.061L607.872 280.312C606.382 281.589 605.821 282.801 606.188 283.947C606.678 285.099 607.533 286.332 608.753 287.644C609.451 288.394 610.18 289.116 610.943 289.81C611.705 290.504 612.464 291.257 613.219 292.07C613.684 292.569 613.751 293.017 613.421 293.413C613.09 293.809 612.763 294.146 612.439 294.424Z" fill="black"/>
<path d="M676.046 344.855C674.739 345.661 673.325 346.383 671.804 347.021C670.355 347.614 668.93 348.242 667.529 348.906C665.935 349.588 664.352 350.364 662.779 351.234C661.28 352.059 659.686 352.741 657.998 353.281C657.515 353.479 656.938 353.534 656.267 353.447C655.715 353.386 655.275 353.107 654.946 352.609C649.909 344.993 644.908 337.355 639.944 329.694C635.053 321.989 630.088 314.328 625.052 306.712C623.545 304.435 621.907 302.189 620.135 299.974C618.484 297.786 616.905 295.553 615.398 293.276C615.163 292.92 615.037 292.497 615.019 292.007C615.121 291.543 615.354 291.199 615.717 290.975C616.153 290.706 616.623 290.566 617.127 290.556C617.704 290.501 618.158 290.722 618.487 291.22C619.476 292.715 620.49 294.094 621.529 295.357C622.642 296.575 623.88 297.364 625.243 297.726C626.727 298.113 628.413 297.725 630.301 296.56L692.835 257.99C694.506 256.96 695.266 255.79 695.115 254.48C695.037 253.125 694.528 251.736 693.586 250.312C693.115 249.601 692.632 248.947 692.136 248.351C691.712 247.711 691.288 247.07 690.865 246.429C690.488 245.86 690.304 245.272 690.312 244.666C690.32 244.06 690.651 243.555 691.304 243.152C691.886 242.793 692.465 242.587 693.042 242.531C693.619 242.476 694.142 242.804 694.613 243.516C695.413 244.726 696.154 245.923 696.834 247.106C697.562 248.361 698.302 249.558 699.055 250.697C703.81 257.886 708.6 265.052 713.427 272.196C718.327 279.295 723.13 286.403 727.838 293.521C730.003 296.795 732.254 299.966 734.59 303.035C732.672 304.618 730.801 306.273 728.977 308C727.153 309.726 725.283 311.381 723.365 312.964C723.023 313.376 722.658 313.751 722.269 314.091C721.953 314.386 721.577 314.668 721.141 314.937C720.415 315.385 719.742 315.449 719.122 315.13C718.549 314.883 718.051 314.438 717.627 313.798C717.25 313.228 717.077 312.734 717.106 312.315C717.256 311.922 717.55 311.44 717.99 310.868C721.454 306.828 723.267 303.154 723.431 299.846C723.643 296.609 722.242 292.713 719.229 288.158L704.543 265.951L671.75 286.177C673.586 288.953 675.422 291.729 677.258 294.504C679.166 297.235 681.135 299.98 683.163 302.737C685.238 305.566 687.281 308.114 689.292 310.381C691.422 312.674 693.683 315.088 696.074 317.621L696.145 317.728C696.427 318.155 696.387 318.481 696.024 318.705C695.515 319.018 694.466 319.365 692.877 319.744C691.287 320.123 690.203 320.34 689.626 320.396C688.519 320.577 687.707 320.277 687.189 319.494C686.013 317.714 684.898 315.797 683.844 313.74C682.911 311.711 681.832 309.771 680.609 307.92C679.834 306.594 678.987 305.313 678.067 304.077C677.219 302.795 676.349 301.479 675.454 300.126C675.125 299.628 674.772 299.094 674.395 298.525C674.138 297.982 673.821 297.426 673.445 296.856C672.739 295.789 671.853 294.681 670.788 293.535C669.795 292.343 668.606 291.473 667.221 290.925C665.955 290.402 664.56 290.612 663.035 291.552L636.888 307.679C634.419 309.202 633.366 310.703 633.731 312.182C634.168 313.616 635.045 315.329 636.363 317.322L642.012 325.863C643.33 327.856 644.898 329.995 646.717 332.281C648.582 334.638 650.655 336.766 652.934 338.667C655.214 340.568 657.538 341.84 659.907 342.484C662.515 343.18 664.938 343.289 667.178 342.809C669.537 342.356 671.966 342.01 674.467 341.771C675.356 341.723 676.059 342.091 676.577 342.874C677.095 343.657 676.918 344.317 676.046 344.855Z" fill="black"/>
</svg>
