<svg width="131" height="119" viewBox="0 0 131 119" fill="none" xmlns="http://www.w3.org/2000/svg">
<path d="M102 65.8625L71.4796 71.225C63.5906 72.6062 57.4547 79.025 56.4187 87.15L52.1156 119L46.8562 87.8812C45.5015 79.8375 39.2062 73.5812 31.2375 72.525L0 68.1375L30.5203 62.775C38.4094 61.3937 44.5454 54.975 45.5812 46.85L49.8844 15L55.1437 46.1187C56.4984 54.1625 62.7937 60.4187 70.7625 61.475L102 65.8625Z" fill="#707070"/>
<path d="M131 36.4701L113.645 40.3152C109.159 41.3056 105.67 45.908 105.081 51.7339L102.634 74.5714L99.6438 52.2583C98.8734 46.4906 95.2938 42.0047 90.7625 41.2473L73 38.1013L90.3547 34.2562C94.8406 33.2658 98.3297 28.6634 98.9188 22.8375L101.366 0L104.356 22.3132C105.127 28.0808 108.706 32.5667 113.238 33.3241L131 36.4701Z" fill="#707070"/>
</svg>
