<svg width="100" height="101" viewBox="0 0 100 101" fill="none" xmlns="http://www.w3.org/2000/svg">
<mask id="mask0_58_194" style="mask-type:luminance" maskUnits="userSpaceOnUse" x="0" y="47" width="60" height="54">
<path d="M59.3059 49.5921L3.2168 47.0381L0.00238008 97.7698L56.0915 100.324L59.3059 49.5921Z" fill="white"/>
</mask>
<g mask="url(#mask0_58_194)">
<path d="M57.7338 74.4031L40.7852 76.2548C36.4044 76.731 32.8319 79.7085 32.0111 83.6459L28.6604 99.0748L26.7301 83.7632C26.2338 79.8055 22.9654 76.596 18.6161 75.8813L1.57443 72.9589L18.5231 71.1072C22.9039 70.631 26.4764 67.6535 27.2972 63.716L30.6479 48.2872L32.5782 63.5988C33.0744 67.5565 36.3428 70.7659 40.6922 71.4807L57.7338 74.4031Z" fill="black"/>
</g>
<mask id="mask1_58_194" style="mask-type:luminance" maskUnits="userSpaceOnUse" x="33" y="0" width="67" height="73">
<path d="M99.6459 2.9254L37.4238 0.083313L33.0029 70.048L95.2249 72.8901L99.6459 2.9254Z" fill="white"/>
</mask>
<g mask="url(#mask1_58_194)">
<path d="M97.4837 37.1425L78.6377 39.8996C73.7666 40.6091 69.7507 44.7562 68.7733 50.1933L64.7944 71.5001L62.9089 50.4188C62.4245 44.9698 58.8502 40.5855 54.034 39.6529L35.165 35.8309L54.0109 33.0737C58.8821 32.3643 62.8981 28.2172 63.8754 22.7801L67.8543 1.47327L69.7398 22.5546C70.2242 28.0036 73.7985 32.3879 78.6147 33.3205L97.4837 37.1425Z" fill="black"/>
</g>
</svg>
